<?xml version="1.0" encoding="UTF-8"?>
<!DOCTYPE svg PUBLIC "-//W3C//DTD SVG 1.1//EN" "http://www.w3.org/Graphics/SVG/1.1/DTD/svg11.dtd">
<!-- Creator: CorelDRAW X7 -->
<svg xmlns="http://www.w3.org/2000/svg" xml:space="preserve" width="250px" height="250px" version="1.1" style="shape-rendering:geometricPrecision; text-rendering:geometricPrecision; image-rendering:optimizeQuality; fill-rule:evenodd; clip-rule:evenodd"
viewBox="0 0 250 250"
 xmlns:xlink="http://www.w3.org/1999/xlink">
 <defs>
  <style type="text/css">
   <![CDATA[
    .fil1 {fill:#FEFEFE}
    .fil0 {fill:#5385C5}
   ]]>
  </style>
 </defs>
 <g id="Слой_x0020_1">
  <metadata id="CorelCorpID_0Corel-Layer"/>
  <circle class="fil0" cx="125" cy="125" r="125"/>
  <path class="fil1" d="M42 187l29 0 0 -29 -29 -23 0 52zm45 0l30 0 0 -49 -30 31 0 18zm45 0l30 0 0 -51 -14 14 -16 -14 0 51zm46 0l29 0 0 -66 -12 -12 -5 0 -12 12 0 66z"/>
  <polygon class="fil1" points="84,130 124,87 148,109 180,77 165,63 208,63 208,106 193,90 148,134 125,112 85,154 42,119 42,97 "/>
 </g>
</svg>
